<svg width="704" height="80" viewBox="0 0 704 80" fill="none" xmlns="http://www.w3.org/2000/svg">
<rect x="153" y="68" width="511" height="5" rx="2.5" fill="#535353"/>
<rect x="32" y="68" width="511" height="5" rx="2.5" fill="#C4C4C4"/>
<path d="M0.714 75V73.698C1.31133 73.2033 1.89 72.7133 2.45 72.228C3.01933 71.7427 3.52333 71.262 3.962 70.786C4.41 70.31 4.76467 69.848 5.026 69.4C5.29667 68.9427 5.432 68.4993 5.432 68.07C5.432 67.6687 5.32 67.314 5.096 67.006C4.88133 66.698 4.522 66.544 4.018 66.544C3.50467 66.544 3.11733 66.712 2.856 67.048C2.59467 67.384 2.464 67.79 2.464 68.266H0.728C0.746667 67.5473 0.905333 66.95 1.204 66.474C1.50267 65.9887 1.89933 65.6293 2.394 65.396C2.88867 65.1533 3.444 65.032 4.06 65.032C5.05867 65.032 5.83333 65.3073 6.384 65.858C6.944 66.3993 7.224 67.104 7.224 67.972C7.224 68.5133 7.098 69.0407 6.846 69.554C6.60333 70.0673 6.28133 70.562 5.88 71.038C5.47867 71.514 5.04467 71.962 4.578 72.382C4.11133 72.7927 3.65867 73.1753 3.22 73.53H7.462V75H0.714ZM10.238 75.098C9.91138 75.098 9.64071 74.9953 9.42605 74.79C9.22071 74.5847 9.11805 74.3373 9.11805 74.048C9.11805 73.7493 9.22071 73.4973 9.42605 73.292C9.64071 73.0867 9.91138 72.984 10.238 72.984C10.5647 72.984 10.8307 73.0867 11.036 73.292C11.2507 73.4973 11.358 73.7493 11.358 74.048C11.358 74.3373 11.2507 74.5847 11.036 74.79C10.8307 74.9953 10.5647 75.098 10.238 75.098ZM10.238 70.002C9.91138 70.002 9.64071 69.8993 9.42605 69.694C9.22071 69.4887 9.11805 69.2413 9.11805 68.952C9.11805 68.6533 9.22071 68.4013 9.42605 68.196C9.64071 67.9907 9.91138 67.888 10.238 67.888C10.5647 67.888 10.8307 67.9907 11.036 68.196C11.2507 68.4013 11.358 68.6533 11.358 68.952C11.358 69.2413 11.2507 69.4887 11.036 69.694C10.8307 69.8993 10.5647 70.002 10.238 70.002ZM14.5247 75V67.244L12.9147 67.622V66.25L15.2807 65.2H16.3867V75H14.5247ZM19.9108 75V67.244L18.3008 67.622V66.25L20.6668 65.2H21.7728V75H19.9108Z" fill="#C4C4C4"/>
<path d="M673.714 75V73.698C674.311 73.2033 674.89 72.7133 675.45 72.228C676.019 71.7427 676.523 71.262 676.962 70.786C677.41 70.31 677.765 69.848 678.026 69.4C678.297 68.9427 678.432 68.4993 678.432 68.07C678.432 67.6687 678.32 67.314 678.096 67.006C677.881 66.698 677.522 66.544 677.018 66.544C676.505 66.544 676.117 66.712 675.856 67.048C675.595 67.384 675.464 67.79 675.464 68.266H673.728C673.747 67.5473 673.905 66.95 674.204 66.474C674.503 65.9887 674.899 65.6293 675.394 65.396C675.889 65.1533 676.444 65.032 677.06 65.032C678.059 65.032 678.833 65.3073 679.384 65.858C679.944 66.3993 680.224 67.104 680.224 67.972C680.224 68.5133 680.098 69.0407 679.846 69.554C679.603 70.0673 679.281 70.562 678.88 71.038C678.479 71.514 678.045 71.962 677.578 72.382C677.111 72.7927 676.659 73.1753 676.22 73.53H680.462V75H673.714ZM683.238 75.098C682.911 75.098 682.641 74.9953 682.426 74.79C682.221 74.5847 682.118 74.3373 682.118 74.048C682.118 73.7493 682.221 73.4973 682.426 73.292C682.641 73.0867 682.911 72.984 683.238 72.984C683.565 72.984 683.831 73.0867 684.036 73.292C684.251 73.4973 684.358 73.7493 684.358 74.048C684.358 74.3373 684.251 74.5847 684.036 74.79C683.831 74.9953 683.565 75.098 683.238 75.098ZM683.238 70.002C682.911 70.002 682.641 69.8993 682.426 69.694C682.221 69.4887 682.118 69.2413 682.118 68.952C682.118 68.6533 682.221 68.4013 682.426 68.196C682.641 67.9907 682.911 67.888 683.238 67.888C683.565 67.888 683.831 67.9907 684.036 68.196C684.251 68.4013 684.358 68.6533 684.358 68.952C684.358 69.2413 684.251 69.4887 684.036 69.694C683.831 69.8993 683.565 70.002 683.238 70.002ZM690.941 75V73.18H686.111V71.752L690.703 65.2H692.733V71.626H694.021V73.18H692.733V75H690.941ZM688.029 71.626H691.053V67.174L688.029 71.626ZM695.751 75V73.698C696.349 73.2033 696.927 72.7133 697.487 72.228C698.057 71.7427 698.561 71.262 698.999 70.786C699.447 70.31 699.802 69.848 700.063 69.4C700.334 68.9427 700.469 68.4993 700.469 68.07C700.469 67.6687 700.357 67.314 700.133 67.006C699.919 66.698 699.559 66.544 699.055 66.544C698.542 66.544 698.155 66.712 697.893 67.048C697.632 67.384 697.501 67.79 697.501 68.266H695.765C695.784 67.5473 695.943 66.95 696.241 66.474C696.54 65.9887 696.937 65.6293 697.431 65.396C697.926 65.1533 698.481 65.032 699.097 65.032C700.096 65.032 700.871 65.3073 701.421 65.858C701.981 66.3993 702.261 67.104 702.261 67.972C702.261 68.5133 702.135 69.0407 701.883 69.554C701.641 70.0673 701.319 70.562 700.917 71.038C700.516 71.514 700.082 71.962 699.615 72.382C699.149 72.7927 698.696 73.1753 698.257 73.53H702.499V75H695.751Z" fill="#C4C4C4"/>
<path d="M252.34 29.4905C251.876 29.3443 251.284 28.9633 250.622 28.3003C250.054 27.7438 249.467 27.0268 248.867 26.2453C248.723 26.4365 248.58 26.6278 248.436 26.8228C248.044 27.3538 247.642 27.89 247.234 28.4173C248.662 30.1498 250.144 31.8508 252.341 32.1313V34.1563L258.007 30.8863L252.34 27.614V29.4905H252.34ZM242.894 22.9505C243.461 23.5055 244.048 24.2225 244.649 25.004C244.795 24.8075 244.942 24.614 245.089 24.413C245.48 23.8809 245.878 23.3534 246.283 22.8305C244.759 20.9825 243.183 19.1503 240.736 19.0625H238.111V21.6875H240.736C241.227 21.6673 241.997 22.0513 242.894 22.9498V22.9505ZM252.34 21.7558V23.6578L258.007 20.3855L252.34 17.1133V19.0985C250.912 19.2635 249.771 20.1095 248.777 21.0815C247.129 22.7195 245.689 24.9575 244.268 26.7365C242.868 28.5643 241.463 29.6518 240.734 29.564H238.109V32.189H240.734C242.373 32.1665 243.644 31.2395 244.739 30.1693C246.385 28.5313 247.826 26.294 249.247 24.5158C250.404 23.003 251.56 22.0108 252.34 21.7558Z" fill="#C4C4C4"/>
<path d="M303.667 18.0417L294.625 24.5001L303.667 30.9584V18.0417ZM294.625 24.5001V18.0417H292.042V30.9584H294.625V24.5001Z" fill="#C4C4C4"/>
<path d="M392.333 18.0417L401.375 24.5001L392.333 30.9584V18.0417ZM401.375 24.5001V18.0417H403.958V30.9584H401.375V24.5001Z" fill="#C4C4C4"/>
<path d="M347.5 4.25C343.297 4.25 339.189 5.49629 335.694 7.83127C332.2 10.1663 329.476 13.485 327.868 17.368C326.259 21.2509 325.838 25.5236 326.658 29.6457C327.478 33.7678 329.502 37.5542 332.474 40.526C335.446 43.4979 339.232 45.5218 343.354 46.3417C347.476 47.1616 351.749 46.7408 355.632 45.1324C359.515 43.5241 362.834 40.8004 365.169 37.3059C367.504 33.8113 368.75 29.7029 368.75 25.5C368.75 22.7094 368.2 19.9461 367.132 17.368C366.065 14.7898 364.499 12.4472 362.526 10.474C360.553 8.50074 358.21 6.93547 355.632 5.86756C353.054 4.79965 350.291 4.25 347.5 4.25ZM343.354 32.5V17.381L355 25.5L343.354 32.5Z" fill="white"/>
<path d="M455.15 22.3382C455.278 22.3382 455.395 22.3822 455.489 22.4559L455.562 22.5252L455.581 22.5472C456.22 23.3392 456.627 24.2931 456.756 25.3026C456.885 26.3121 456.732 27.3376 456.313 28.2651C455.894 29.1926 455.226 29.9856 454.383 30.556C453.54 31.1263 452.555 31.4516 451.539 31.4957L451.3 31.5001H444.7C444.589 31.5001 444.478 31.4968 444.367 31.4902L446.189 33.3107C446.28 33.4018 446.336 33.522 446.348 33.6502C446.359 33.7785 446.325 33.9067 446.252 34.0125L446.189 34.0895C446.098 34.1804 445.978 34.2365 445.85 34.248C445.722 34.2594 445.593 34.2255 445.488 34.1522L445.411 34.0895L442.661 31.3395C442.57 31.2483 442.514 31.1282 442.502 30.9999C442.491 30.8717 442.525 30.7435 442.598 30.6377L442.661 30.5607L445.411 27.8107C445.508 27.7132 445.638 27.6557 445.775 27.6493C445.912 27.6429 446.047 27.6883 446.153 27.7763C446.258 27.8644 446.327 27.9888 446.345 28.1251C446.364 28.2613 446.331 28.3995 446.252 28.5125L446.189 28.5895L444.389 30.3891L444.543 30.3979L444.7 30.4001H451.3C452.131 30.4001 452.945 30.1649 453.648 29.7217C454.35 29.2784 454.913 28.6452 455.271 27.8953C455.629 27.1454 455.767 26.3095 455.67 25.4844C455.573 24.6592 455.244 23.8784 454.721 23.2325C454.656 23.1516 454.616 23.0541 454.604 22.9513C454.593 22.8485 454.61 22.7444 454.655 22.6511C454.7 22.5579 454.77 22.4791 454.858 22.4239C454.945 22.3688 455.046 22.3394 455.15 22.3393V22.3382ZM449.811 17.9107C449.902 17.8197 450.022 17.7636 450.15 17.7522C450.278 17.7407 450.407 17.7746 450.512 17.848L450.589 17.9107L453.339 20.6607L453.402 20.7377C453.465 20.8295 453.499 20.9385 453.499 21.0501C453.499 21.1617 453.465 21.2706 453.402 21.3625L453.339 21.4395L450.589 24.1895L450.512 24.2522C450.421 24.3156 450.312 24.3495 450.2 24.3495C450.088 24.3495 449.979 24.3156 449.888 24.2522L449.811 24.1895L449.748 24.1125C449.684 24.0206 449.651 23.9117 449.651 23.8001C449.651 23.6885 449.684 23.5795 449.748 23.4877L449.811 23.4107L451.611 21.6111L451.457 21.6023L451.3 21.6001H444.7C443.868 21.6 443.054 21.8356 442.351 22.2797C441.647 22.7237 441.084 23.3578 440.727 24.1087C440.369 24.8596 440.232 25.6964 440.331 26.5221C440.429 27.3479 440.76 28.1288 441.284 28.7743C441.372 28.8911 441.41 29.038 441.389 29.1826C441.369 29.3272 441.291 29.4577 441.174 29.5454C441.117 29.5888 441.051 29.6204 440.981 29.6383C440.911 29.6563 440.838 29.6603 440.766 29.6501C440.622 29.6294 440.491 29.5522 440.403 29.4354C439.769 28.6421 439.366 27.6885 439.24 26.6805C439.115 25.6724 439.27 24.6491 439.691 23.7242C440.111 22.7993 440.779 22.0088 441.621 21.4405C442.463 20.8722 443.446 20.5482 444.461 20.5045L444.7 20.5001H451.3C451.412 20.5001 451.523 20.5034 451.633 20.51L449.811 18.6895L449.748 18.6125C449.675 18.5066 449.641 18.3785 449.652 18.2502C449.664 18.122 449.72 18.0018 449.811 17.9107Z" fill="#C4C4C4"/>
</svg>
