<svg width="271" height="32" viewBox="0 0 271 32" fill="none" xmlns="http://www.w3.org/2000/svg">
<path d="M263.718 8H267.316V12" stroke="#B3B3B3" stroke-width="2" stroke-linecap="round" stroke-linejoin="round"/>
<path d="M261.918 14L267.316 8" stroke="#B3B3B3" stroke-width="2" stroke-linecap="round" stroke-linejoin="round"/>
<path d="M256.521 24H252.923V20" stroke="#B3B3B3" stroke-width="2" stroke-linecap="round" stroke-linejoin="round"/>
<path d="M252.923 24L258.32 18" stroke="#B3B3B3" stroke-width="2" stroke-linecap="round" stroke-linejoin="round"/>
<path d="M262.818 8.24988C262.818 7.17088 261.672 6.59988 260.947 7.31588L256.905 11.3089C256.782 11.4311 256.623 11.4987 256.457 11.4989H253.148C252.611 11.4989 252.096 11.7359 251.717 12.1579C251.337 12.5799 251.124 13.1521 251.124 13.7489V18.2459C251.124 18.8426 251.337 19.4149 251.717 19.8369C252.096 20.2588 252.611 20.4959 253.148 20.4959H256.458C256.623 20.4961 256.783 20.5637 256.906 20.6859L260.946 24.6799C261.671 25.3959 262.818 24.8239 262.818 23.7459V8.24988ZM257.803 12.4299L261.469 8.80688V23.1889L257.803 19.5649C257.433 19.1985 256.954 18.996 256.458 18.9959H253.148C252.969 18.9959 252.797 18.9169 252.671 18.7762C252.544 18.6356 252.473 18.4448 252.473 18.2459V13.7499C252.473 13.551 252.544 13.3602 252.671 13.2196C252.797 13.0789 252.969 12.9999 253.148 12.9999H256.458C256.954 12.9997 257.433 12.7973 257.803 12.4309V12.4299Z" fill="black"/>
<path d="M266.409 9.89678C266.48 9.83821 266.561 9.79581 266.647 9.772C266.733 9.74819 266.822 9.74344 266.91 9.75802C266.998 9.7726 267.082 9.80622 267.158 9.85697C267.234 9.90771 267.3 9.97459 267.353 10.0538C268.5 11.7737 269.118 13.8587 269.115 15.9998C269.117 18.1409 268.499 20.226 267.352 21.9458C267.243 22.0985 267.085 22.1983 266.911 22.2239C266.738 22.2496 266.562 22.1991 266.421 22.0833C266.28 21.9674 266.186 21.7952 266.157 21.6031C266.128 21.4109 266.168 21.2139 266.268 21.0538C267.243 19.5921 267.768 17.8197 267.765 15.9998C267.768 14.1799 267.243 12.4075 266.268 10.9458C266.215 10.8666 266.177 10.7766 266.156 10.6811C266.134 10.5855 266.13 10.4862 266.143 10.3888C266.156 10.2914 266.186 10.1978 266.232 10.1134C266.278 10.0289 266.338 9.95535 266.409 9.89678Z" fill="black"/>
<path d="M264.746 12.3698C264.823 12.3228 264.909 12.2934 264.997 12.2831C265.085 12.2729 265.174 12.282 265.259 12.3101C265.344 12.3381 265.423 12.3845 265.492 12.4466C265.561 12.5086 265.618 12.5852 265.66 12.6718C266.143 13.6618 266.416 14.7968 266.416 15.9998C266.417 17.1618 266.158 18.3058 265.66 19.3278C265.575 19.5028 265.431 19.6331 265.259 19.6899C265.088 19.7467 264.903 19.7255 264.746 19.6308C264.588 19.5361 264.471 19.3758 264.42 19.185C264.369 18.9943 264.388 18.7888 264.473 18.6138C264.851 17.8368 265.067 16.9478 265.067 15.9998C265.067 15.0518 264.851 14.1628 264.473 13.3858C264.431 13.2991 264.404 13.2041 264.395 13.106C264.386 13.008 264.394 12.9089 264.42 12.8145C264.445 12.72 264.487 12.6321 264.543 12.5556C264.599 12.4791 264.668 12.4156 264.746 12.3688V12.3698Z" fill="black"/>
<path d="M120.692 10.2499C120.692 9.17088 119.546 8.59988 118.821 9.31588L114.78 13.3089C114.656 13.4311 114.497 13.4987 114.332 13.4989H111.022C110.485 13.4989 109.971 13.7359 109.591 14.1579C109.212 14.5799 108.998 15.1521 108.998 15.7489V20.2459C108.998 20.8426 109.212 21.4149 109.591 21.8369C109.971 22.2588 110.485 22.4959 111.022 22.4959H114.333C114.498 22.4961 114.657 22.5637 114.78 22.6859L118.82 26.6799C119.545 27.3959 120.692 26.8239 120.692 25.7459V10.2499ZM115.677 14.4299L119.343 10.8069V25.1889L115.677 21.5649C115.307 21.1985 114.828 20.996 114.333 20.9959H111.022C110.843 20.9959 110.672 20.9169 110.545 20.7762C110.419 20.6356 110.348 20.4448 110.348 20.2459V15.7499C110.348 15.551 110.419 15.3602 110.545 15.2196C110.672 15.0789 110.843 14.9999 111.022 14.9999H114.333C114.828 14.9997 115.307 14.7973 115.677 14.4309V14.4299Z" fill="#B3B3B3"/>
<path d="M124.283 11.8968C124.354 11.8382 124.435 11.7958 124.521 11.772C124.607 11.7482 124.697 11.7434 124.784 11.758C124.872 11.7726 124.956 11.8062 125.032 11.857C125.108 11.9077 125.174 11.9746 125.227 12.0538C126.374 13.7737 126.992 15.8587 126.989 17.9998C126.992 20.1409 126.373 22.226 125.226 23.9458C125.117 24.0985 124.959 24.1983 124.786 24.2239C124.612 24.2496 124.436 24.1991 124.295 24.0833C124.155 23.9674 124.06 23.7952 124.031 23.6031C124.003 23.4109 124.042 23.2139 124.142 23.0538C125.117 21.5921 125.643 19.8197 125.64 17.9998C125.643 16.1799 125.117 14.4075 124.142 12.9458C124.089 12.8666 124.051 12.7766 124.03 12.6811C124.008 12.5855 124.004 12.4862 124.017 12.3888C124.03 12.2914 124.061 12.1978 124.106 12.1134C124.152 12.0289 124.212 11.9553 124.283 11.8968Z" fill="#B3B3B3"/>
<path d="M122.62 14.3698C122.698 14.3228 122.783 14.2934 122.871 14.2831C122.959 14.2729 123.049 14.282 123.134 14.3101C123.218 14.3381 123.298 14.3845 123.366 14.4466C123.435 14.5086 123.492 14.5852 123.535 14.6718C124.017 15.6618 124.29 16.7968 124.29 17.9998C124.292 19.1618 124.032 20.3058 123.535 21.3278C123.449 21.5028 123.305 21.6331 123.134 21.6899C122.962 21.7467 122.777 21.7255 122.62 21.6308C122.462 21.5361 122.345 21.3758 122.294 21.185C122.243 20.9943 122.262 20.7888 122.347 20.6138C122.725 19.8368 122.941 18.9478 122.941 17.9998C122.941 17.0518 122.725 16.1628 122.347 15.3858C122.305 15.2991 122.279 15.2041 122.269 15.106C122.26 15.008 122.269 14.9089 122.294 14.8145C122.319 14.72 122.361 14.6321 122.417 14.5556C122.473 14.4791 122.542 14.4156 122.62 14.3688V14.3698Z" fill="#B3B3B3"/>
<rect x="136.884" y="16" width="104.346" height="5" rx="2.5" fill="#C4C4C4"/>
<path d="M89.6582 24.0037H76.1652C75.8075 24.0033 75.4645 23.8451 75.2115 23.5639C74.9585 23.2827 74.8163 22.9014 74.8159 22.5037V12.0037C74.8163 11.606 74.9585 11.2247 75.2115 10.9434C75.4645 10.6622 75.8075 10.5041 76.1652 10.5037H89.6582C90.0159 10.5041 90.3589 10.6622 90.6119 10.9434C90.8649 11.2247 91.0071 11.606 91.0075 12.0037V22.5037C91.0069 22.9013 90.8646 23.2825 90.6117 23.5637C90.3588 23.8448 90.0159 24.0031 89.6582 24.0037ZM76.1652 12.0037V22.5037H89.6582V12.0037H76.1652Z" fill="#1B9145"/>
<path d="M73.4668 25.5037H92.357V27.0037H73.4668V25.5037Z" fill="#1B9145"/>
<path d="M39.7344 19H55.9259V21H39.7344V19Z" fill="#C4C4C4"/>
<path d="M47.8301 14H55.9259V16H47.8301V14Z" fill="#C4C4C4"/>
<path d="M39.7344 24H55.9259V26H39.7344V24Z" fill="#C4C4C4"/>
<path d="M39.7344 9L45.1316 13.5L39.7344 18V9Z" fill="#C4C4C4"/>
<path d="M16.4618 17.6023C17.1456 16.4084 17.3747 14.9613 17.0987 13.5794C16.8226 12.1976 16.0641 10.994 14.9899 10.2337C13.9157 9.47326 12.6139 9.21828 11.3707 9.5248C10.1276 9.83133 9.04508 10.6742 8.36125 11.8681L8.32431 11.9228L8.29533 11.9832C7.63212 13.1653 7.4132 14.5898 7.6857 15.9499C7.7217 16.1366 7.76762 16.3207 7.82322 16.5013L4.42409 25.0938C4.32109 25.3538 4.30534 25.6462 4.37971 25.918C4.45408 26.1897 4.61362 26.4229 4.8294 26.5752L5.96842 27.3814C6.18379 27.5344 6.44134 27.5965 6.69432 27.5564C6.94731 27.5163 7.17898 27.3768 7.34728 27.1631L12.9129 20.1042C13.0837 20.0838 13.2532 20.0521 13.4206 20.0094C14.6444 19.7086 15.7129 18.8855 16.3959 17.7173L16.4328 17.6626L16.4618 17.6023ZM16.0285 13.8927C16.2045 14.7683 16.1184 15.6838 15.7834 16.4999L9.5467 12.0852C9.99789 11.4988 10.5873 11.0639 11.2487 10.8295C11.9101 10.595 12.6173 10.5703 13.2907 10.7581C13.9641 10.9459 14.5771 11.3388 15.0608 11.8925C15.5444 12.4463 15.8796 13.139 16.0285 13.8927ZM6.54139 26.3811L5.40238 25.5748L8.45305 17.8741C9.18226 19.0188 10.2861 19.8002 11.5276 20.0505L6.54139 26.3811ZM8.72856 15.6927C8.55266 14.8171 8.63874 13.9017 8.97372 13.0855L9.5467 12.0852L15.7834 16.4999C15.3322 17.0864 14.1698 18.5216 13.5084 18.756C12.847 18.9904 12.1398 19.0151 11.4664 18.8273C10.793 18.6395 10.18 18.2467 9.69635 17.6929C9.21269 17.1392 8.87753 16.4465 8.72856 15.6927Z" fill="#C4C4C4"/>
</svg>
