<svg width="17" height="18" viewBox="0 0 17 18" fill="none" xmlns="http://www.w3.org/2000/svg">
<path d="M10.9254 3.1876C10.9254 2.37835 10.0654 1.9501 9.52139 2.4871L6.48862 5.48185C6.39605 5.57348 6.27644 5.62418 6.15247 5.62435H3.66914C3.26634 5.62435 2.88004 5.80214 2.59522 6.1186C2.3104 6.43507 2.15039 6.86429 2.15039 7.31185V10.6846C2.15039 11.1321 2.3104 11.5614 2.59522 11.8778C2.88004 12.1943 3.26634 12.3721 3.66914 12.3721H6.15314C6.27711 12.3723 6.39672 12.423 6.48929 12.5146L9.52071 15.5101C10.0648 16.0471 10.9254 15.6181 10.9254 14.8096V3.1876ZM7.16227 6.3226L9.91289 3.60535V14.3918L7.16227 11.6738C6.88429 11.3991 6.52521 11.2472 6.15314 11.2471H3.66914C3.53487 11.2471 3.40611 11.1878 3.31117 11.0823C3.21623 10.9769 3.16289 10.8338 3.16289 10.6846V7.3126C3.16289 7.16341 3.21623 7.02034 3.31117 6.91485C3.40611 6.80936 3.53487 6.7501 3.66914 6.7501H6.15314C6.52521 6.74999 6.88429 6.59814 7.16227 6.32335V6.3226Z" fill="black"/>
<path d="M13.62 4.42277C13.6735 4.37884 13.7342 4.34704 13.7987 4.32918C13.8632 4.31132 13.9302 4.30776 13.996 4.3187C14.0617 4.32963 14.1249 4.35485 14.1819 4.39291C14.2389 4.43097 14.2886 4.48113 14.3281 4.54052C15.1888 5.83044 15.6525 7.39423 15.6504 9.00002C15.6523 10.6059 15.1884 12.1697 14.3274 13.4595C14.2459 13.5741 14.1274 13.6489 13.9971 13.6681C13.8668 13.6874 13.7348 13.6495 13.6292 13.5626C13.5235 13.4757 13.4524 13.3466 13.4309 13.2025C13.4094 13.0584 13.4392 12.9106 13.514 12.7905C14.2459 11.6942 14.64 10.365 14.6379 9.00002C14.64 7.63508 14.2459 6.30579 13.514 5.20952C13.4745 5.15013 13.4459 5.08267 13.4298 5.01099C13.4137 4.93931 13.4105 4.86481 13.4204 4.79175C13.4302 4.7187 13.4529 4.64851 13.4872 4.5852C13.5214 4.52189 13.5666 4.46669 13.62 4.42277Z" fill="black"/>
<path d="M12.3718 6.27751C12.4303 6.24229 12.4944 6.2202 12.5605 6.21252C12.6267 6.20484 12.6935 6.21171 12.7573 6.23275C12.821 6.25378 12.8804 6.28856 12.9321 6.33511C12.9837 6.38165 13.0266 6.43905 13.0583 6.50401C13.4201 7.24651 13.6253 8.09776 13.6253 9.00001C13.6264 9.87151 13.4315 10.7295 13.0583 11.496C12.9944 11.6273 12.8861 11.725 12.7574 11.7676C12.6287 11.8102 12.49 11.7943 12.3718 11.7233C12.2537 11.6523 12.1657 11.532 12.1274 11.389C12.089 11.2459 12.1034 11.0918 12.1673 10.9605C12.4508 10.3778 12.6128 9.71101 12.6128 9.00001C12.6128 8.28901 12.4508 7.62226 12.1673 7.03951C12.1356 6.97452 12.1158 6.90322 12.1089 6.8297C12.102 6.75618 12.1083 6.68188 12.1273 6.61104C12.1463 6.5402 12.1776 6.47422 12.2196 6.41686C12.2616 6.35951 12.3133 6.3119 12.3718 6.27676V6.27751Z" fill="black"/>
</svg>
